<svg width="100" height="100" xmlns="http://www.w3.org/2000/svg">
 <style type="text/css">.st0{opacity:0.79;fill:#89887C;}
	.st1{font-family:'Raleway-Thin';}
	.st2{font-size:24.84px;}
	.st3{fill:#9C9B9B;}
	.st4{font-size:6.7247px;}
	.st5{fill:#89887C;}
	.st6{font-size:14.4581px;}</style>

 <g>
  <title>background</title>
  <rect fill="none" id="canvas_background" height="102" width="102" y="-1" x="-1"/>
 </g>
 <g>
  <title>Layer 1</title>
  <g id="XMLID_1_">
   <path d="m49.999999,8.599999c-22.9,0 -41.4,18.5 -41.4,41.4s18.5,41.4 41.4,41.4c22.9,0 41.4,-18.5 41.4,-41.4s-18.6,-41.4 -41.4,-41.4zm29.1,51c-2.2,3.9 -5.1,7.3 -8.5,10.1c-15.9,13.2 -29.6,9.3 -39.3,-2.4c-10.3,-12.3 -16.5,-14.8 -16.5,-14.8c4.8,0 9.6,1 13.9,3.2c3.1,1.6 5,3.4 5,3.4c19.1,13.1 31,-2.2 31,-2.2c0.7,-0.7 -0.1,-1.6 -0.9,-1.1l-4.8,2.6c-3.3,1.9 -8.4,1.4 -11.4,-1.8l0,0c-7.2,-7.4 0.7,-15.9 0.7,-15.9c0.5,-0.8 -0.6,-1.7 -1.3,-1l0,0c-7.3,5.9 -15.1,8 -21,8.7c-3.8,0.4 -5.5,0.4 -10,-0.2c0,0 7.9,-5.6 11.6,-9.4c3.7,-3.4 6.5,-6.5 10,-10.6c5.3,-6.1 14.6,-8 21.5,-3.9c3.7,2.2 5.4,6.7 2.8,12l-4.8,8.7c0,0 7.5,-6.2 15.1,-6.1c3.2,0.1 6,1.9 7.9,4.5c3.9,4.9 1.7,11.4 -1,16.2z" class="st5" id="XMLID_915_"/>
  </g>
 </g>
</svg>